<svg width="77" height="56" viewBox="0 0 77 56" fill="none" xmlns="http://www.w3.org/2000/svg">
<g id="lexaIcon 1" clip-path="url(#clip0_0_60)">
<path id="Vector" d="M33.5303 10.4432L33.4131 10.6399L31.9232 13.1154L31.8395 13.2556H28.8471H28.5583H22.6488L23.4524 11.9164L24.3417 10.4432H33.5303ZM30.0608 20.5713L29.6988 21.174L28.3679 23.3859H46.45L44.5771 21.5548V21.5527L43.5727 20.5734H33.3441L34.4469 18.7361L34.698 18.3218L35.6397 16.7544L36.3909 15.5072H18.6624L19.1124 14.7581L20.0184 13.2556L20.6044 12.2826L21.7134 10.4432L21.7972 10.303L23.0653 8.19363H30.9083L29.6904 7.00295L28.031 5.3791H21.477L21.2217 5.8039L19.7841 8.19155L19.7297 8.27943V8.28153L18.5369 10.2611L18.4281 10.4411L17.047 12.7367L16.7352 13.2535L15.8542 14.7162L15.3813 15.5031L14.3622 17.1918L13.6863 18.3176H31.4147L30.8916 19.1902L30.0608 20.5713ZM6.60702 10.4432L5.73023 11.9038L4.9183 13.2577L4.2403 14.3793L3.5623 15.5072L3.04752 16.3631L1.86939 18.3218L1.5576 18.8428L0.517578 20.5734H3.79667L6.84558 15.5093L7.7998 13.9252L8.19949 13.2577H14.109L14.201 13.1029L15.3938 11.1233L15.8019 10.4453H6.60702V10.4432ZM34.4573 32.903L32.8042 31.2875L32.2015 30.6995L30.7388 29.2681L29.8997 28.4499L29.0836 27.6485L27.0182 25.6375H27.0161V25.6312L25.3629 24.0136L24.7163 23.3859L23.2934 21.9901L21.8411 20.5713H9.70824L10.0284 20.0335L11.0601 18.3197L11.5183 17.558L12.7509 15.5072H9.47178L9.45295 15.5386L7.95884 18.0142L7.77887 18.3218L6.76606 19.9979L6.42497 20.5713L5.27822 22.4756L4.73206 23.3838H20.6964L21.8076 24.4677L22.9941 25.6354L23.8709 26.4871L25.5241 28.1047L25.8735 28.4478L27.5915 30.124L28.1775 30.6974H13.6884L14.7828 31.7667L16.4359 33.3843L16.5657 33.5098H35.0809L34.4573 32.903ZM38.178 36.5399L37.3828 35.7615H11.6251L12.1001 36.2281L13.7532 37.8436L14.5024 38.576H40.258L38.178 36.5399ZM20.6127 26.4494L19.7778 25.6333H12.5688L12.5584 25.6563L12.5332 25.6333H1.26463L2.59552 26.9328L4.14195 28.4457L4.663 28.9521L6.31615 30.5697L6.44589 30.6953L8.38363 32.5891L9.32321 33.5098H13.3494L11.5267 31.729L10.4699 30.6974L9.87565 30.1156L8.16809 28.4478H22.6572L20.6127 26.4494ZM64.4044 12.6111L62.7513 10.9935L62.1884 10.4453L60.6838 8.97208L59.8886 8.19573L59.0307 7.35451L57.0113 5.38328H56.9381L55.4732 7.81279L55.2452 8.19573L54.2805 9.79656L53.8871 10.4474L52.7905 12.27L52.1962 13.2598H55.4816L56.3459 11.8138L57.1724 10.4474L57.5407 9.83423L58.1643 10.4474L59.1939 11.4518L61.0395 13.2598L61.2614 13.4732L62.9145 15.0887L63.3414 15.5114H52.8805L51.5957 14.2517L50.5766 13.2619L49.9446 12.6383L47.8771 10.6189L47.7034 10.4494L46.2219 9.00138L45.3995 8.19991L44.1565 6.98203L42.5222 5.38747H38.5002L38.9439 5.82064L41.0113 7.83999L41.3775 8.19991L42.6687 9.45756V9.45966L43.6794 10.4494L44.7341 11.4769L46.3872 13.0945L46.5525 13.264L48.4505 15.118L48.8565 15.5156L50.1057 16.7335L51.738 18.3281H70.2574L65.0678 13.264L64.4044 12.6111ZM70.4855 25.6354L69.1567 24.338L65.3021 20.5713H50.8172L48.913 18.7089L48.5133 18.3197L47.2577 17.0934L45.6339 15.5072L45.1902 15.0741L43.5371 13.4565L43.3341 13.2577L41.4717 11.4372L40.4526 10.4432L39.8144 9.81958L38.1529 8.19363L37.7511 7.80023L36.0979 6.18266L35.2755 5.38119L34.0284 4.16331L32.9716 3.13165H43.4366L43.6919 3.38277L45.3451 5.00034L45.7364 5.38328L47.4126 7.01969L48.6158 8.19573H52.6169L52.6252 8.17899L50.5577 6.15963L49.7647 5.38328L48.9046 4.54206L47.4607 3.13375L46.8371 2.52271L45.184 0.905137L44.5855 0.319214H26.0702L27.1667 1.38853L28.8178 3.00401L28.9496 3.13375L30.8853 5.02755L31.2515 5.38538L32.5405 6.64302L34.1309 8.19782L34.6101 8.66447L36.2632 10.2799L36.4348 10.4494L38.3286 12.3014L39.3142 13.264L39.986 13.919L41.6182 15.5135L42.0513 15.9383L43.7045 17.5559L44.4955 18.326L45.772 19.5752L46.7953 20.5776L47.4251 21.1907L49.4926 23.2143L49.6726 23.3921H64.1596L66.022 25.2085L66.4635 25.6417L67.671 26.824L69.3429 28.4562H69.9728H73.3691L70.4855 25.6354ZM61.0165 33.5119L62.1423 31.639L62.7073 30.6995H59.4282L58.5828 32.0952L57.7312 33.5119L57.3942 34.0769L56.3793 35.7615L55.9001 36.5545L54.6864 38.5739H76.4829L70.1988 32.43L68.7738 31.0364H68.7717L68.5436 30.8146V30.8125L68.4222 30.6974L66.474 28.7931L64.8229 27.1839L63.2388 25.6333H56.5656L56.3542 25.9786L54.8685 28.4457L54.8643 28.4541L53.6715 30.4337L53.5167 30.6953H42.5703L43.0453 31.1598L44.6985 32.7732L45.4455 33.5077H55.1091L55.7432 32.4552L56.8041 30.6953L56.9318 30.4735L58.1559 28.4457H62.0942L63.3393 29.6553L64.3981 30.6953L64.9903 31.2666L67.0557 33.288L67.2796 33.5077L69.5773 35.7573H59.6626L60.6545 34.1104L61.0165 33.5119ZM52.6838 43.638L52.0246 42.9935L50.9281 41.922L50.3715 41.3801L49.8023 40.8255L48.3019 39.3565L47.5005 38.5739L46.6488 37.741L44.6231 35.7615L44.5813 35.7196L42.9281 34.1041L42.3213 33.5098L40.8607 32.0806L39.4419 30.6974L39.2075 30.4672L37.14 28.4478H51.6292L49.9467 26.8052L48.7518 25.6354H44.7403L44.7341 25.6438L44.7257 25.6354H30.291L30.2722 25.6689L31.9253 27.2865L33.1118 28.4478L33.9928 29.3079L35.4157 30.6974L35.6459 30.9234L37.7134 32.9469L38.2931 33.5119L39.3645 34.5603L40.5928 35.7615L41.4319 36.5797L43.0851 38.1972L43.4701 38.5739L45.1526 40.2166L45.7741 40.8234L46.8057 41.8342L48.6514 43.638L48.8732 43.8556L50.5264 45.4732L50.9198 45.8582V49.0034L49.3336 47.4528L47.6804 45.8352L45.6129 43.8158L45.433 43.638L43.9598 42.1983L42.5557 40.8255H24.0404L25.9384 42.6817L26.9177 43.638H41.4068L42.4678 44.6738L44.1209 46.2914L46.1884 48.3107L47.8416 49.9283L50.9198 52.9354L53.7322 55.6808V44.6738L52.6838 43.638Z" fill="url(#paint0_linear_0_60)"/>
</g>
<defs>
<linearGradient id="paint0_linear_0_60" x1="7.18163" y1="-1.03507" x2="66.3472" y2="46.616" gradientUnits="userSpaceOnUse">
<stop stop-color="#BD58FD"/>
<stop offset="1" stop-color="#3C03DB"/>
</linearGradient>
<clipPath id="clip0_0_60">
<rect width="77" height="56" fill="white"/>
</clipPath>
</defs>
</svg>
